<?xml version="1.0" standalone="no"?><svg preserveAspectRatio="none" xmlns="http://www.w3.org/2000/svg" viewBox="0 0 1440 320"><path fill="rgba(215,233,251,1)" stroke-width="0" fill-opacity="1" d="M0,160L26.7,181.3C53.3,203,107,245,160,240C213.3,235,267,181,320,154.7C373.3,128,427,128,480,149.3C533.3,171,587,213,640,224C693.3,235,747,213,800,197.3C853.3,181,907,171,960,181.3C1013.3,192,1067,224,1120,234.7C1173.3,245,1227,235,1280,213.3C1333.3,192,1387,160,1413,144L1440,128L1440,0L1413.3,0C1386.7,0,1333,0,1280,0C1226.7,0,1173,0,1120,0C1066.7,0,1013,0,960,0C906.7,0,853,0,800,0C746.7,0,693,0,640,0C586.7,0,533,0,480,0C426.7,0,373,0,320,0C266.7,0,213,0,160,0C106.7,0,53,0,27,0L0,0Z"></path></svg>